<?xml version="1.0" standalone="no"?>
<!DOCTYPE svg PUBLIC "-//W3C//DTD SVG 20010904//EN"
 "http://www.w3.org/TR/2001/REC-SVG-20010904/DTD/svg10.dtd">
<svg version="1.0" xmlns="http://www.w3.org/2000/svg"
 width="1280.000000pt" height="873.000000pt" viewBox="0 0 1280.000000 873.000000"
 preserveAspectRatio="xMidYMid meet">
<g transform="translate(0.000000,873.000000) scale(0.100000,-0.100000)"
fill="#000000" stroke="none">
<path d="M5875 6543 c-58 -8 -60 -13 -19 -40 21 -15 80 -59 129 -98 82 -65 92
-77 107 -126 16 -50 22 -57 78 -87 33 -18 60 -39 60 -46 0 -8 -15 -25 -34 -39
-18 -15 -36 -37 -38 -51 l-5 -25 136 5 c75 3 180 9 234 15 54 5 133 9 175 9
l78 0 54 -56 55 -55 60 6 c81 8 237 36 253 45 14 7 -41 46 -203 140 l-90 53
-208 -18 c-290 -25 -275 -31 -460 177 -147 166 -138 160 -257 187 -46 11 -53
11 -105 4z"/>
<path d="M3615 6248 l-360 -290 -105 -198 c-114 -214 -206 -370 -219 -370 -5
0 -31 -33 -59 -73 -65 -94 -115 -139 -199 -179 -37 -17 -159 -101 -271 -185
-112 -84 -216 -160 -231 -167 -22 -12 -66 -13 -251 -6 -297 12 -420 12 -420 1
0 -10 237 -284 250 -289 4 -1 153 38 331 88 178 49 329 90 336 90 6 0 145 -83
307 -185 l296 -186 828 26 c456 14 878 25 939 25 l110 0 54 -57 c29 -32 106
-113 169 -180 l116 -123 338 -40 c186 -22 351 -40 366 -40 16 0 233 49 482
109 397 95 493 115 768 155 173 25 326 46 338 46 13 0 101 -41 195 -91 162
-87 181 -94 371 -146 110 -30 212 -61 227 -69 15 -7 116 -68 225 -135 l199
-121 230 -58 c127 -32 278 -65 335 -74 628 -94 915 -115 1072 -79 54 12 119
17 248 17 188 0 328 -19 524 -69 55 -13 101 -23 103 -22 6 6 -44 45 -758 595
l-717 551 -200 208 c-228 238 -311 329 -355 393 -94 138 -293 357 -353 388
-26 14 -169 50 -402 102 l-183 40 -132 -71 c-328 -179 -420 -241 -534 -360
-183 -192 -589 -548 -831 -731 -52 -39 -128 -89 -170 -111 l-77 -39 -395 6
c-550 9 -579 16 -269 67 410 66 611 108 749 156 146 51 132 40 268 191 57 64
64 76 54 92 -6 11 -59 77 -117 149 -96 118 -111 133 -182 171 -143 77 -211
129 -296 226 -45 52 -89 94 -97 94 -8 0 -109 -36 -225 -79 l-210 -79 -185
-148 c-134 -107 -275 -206 -509 -356 -178 -115 -332 -213 -342 -218 -10 -6
-107 -22 -214 -36 -256 -34 -267 -27 -76 50 63 25 192 88 286 140 167 93 175
99 365 273 107 97 195 181 195 187 0 12 -11 19 -257 180 l-206 135 -65 108
c-36 59 -83 131 -104 159 -21 28 -97 129 -169 225 -72 96 -156 210 -186 254
-55 78 -59 82 -206 168 -82 48 -155 87 -163 86 -8 0 -176 -131 -374 -291z"/>
<path d="M5278 5945 c-6 -10 -38 -126 -38 -139 0 -3 14 -6 30 -6 28 0 30 2 29
38 0 53 -13 119 -21 107z"/>
<path d="M5026 5885 c9 -22 20 -52 26 -67 9 -26 43 -46 55 -34 6 6 -29 60 -72
111 l-26 30 17 -40z"/>
<path d="M5498 5820 l-28 -45 26 -3 c34 -5 36 -2 32 49 l-3 44 -27 -45z"/>
<path d="M5723 5757 c-55 -16 -59 -21 -27 -42 25 -16 27 -16 55 11 46 44 42
50 -28 31z"/>
<path d="M5175 5681 c-68 -16 -70 -18 -83 -56 -7 -21 -12 -48 -10 -59 2 -14
69 -56 231 -148 l228 -129 110 63 c60 34 109 66 109 72 0 22 -67 126 -121 187
l-58 66 -123 11 c-153 15 -195 14 -283 -7z"/>
<path d="M5810 5580 c31 -24 29 -24 65 0 l30 20 -60 0 -60 0 25 -20z"/>
<path d="M2245 4543 c-39 -2 -93 -17 -154 -40 -105 -42 -104 -45 34 -57 65 -6
92 -14 144 -42 94 -52 434 -318 483 -378 65 -79 121 -136 148 -151 30 -15 298
-29 510 -26 115 1 204 -5 429 -34 156 -19 311 -35 346 -35 38 0 123 15 226 41
90 22 173 38 184 36 12 -2 112 -68 223 -146 l202 -142 337 6 338 7 95 -44 c93
-44 196 -81 255 -92 28 -6 436 -46 461 -46 6 0 55 -57 109 -126 54 -69 107
-129 119 -134 11 -5 86 -15 165 -24 87 -9 149 -20 156 -28 7 -7 18 -42 25 -77
15 -80 48 -188 59 -195 5 -3 68 -19 141 -36 165 -37 230 -66 264 -117 35 -52
54 -112 62 -189 6 -57 9 -64 28 -64 11 1 262 22 556 48 l536 47 96 63 c53 34
130 80 172 103 71 38 87 42 229 60 84 11 383 58 665 104 l514 85 216 168 c118
92 220 170 226 174 6 4 8 9 5 12 -5 5 -391 -41 -538 -65 -73 -11 -169 -5 -636
41 -165 16 -376 36 -470 45 -219 21 -271 33 -499 117 -171 63 -237 96 -664
326 -308 165 -490 258 -520 264 -172 33 -230 36 -438 28 -244 -10 -278 -16
-822 -150 l-370 -90 -234 0 -233 0 -185 83 c-142 63 -212 101 -300 163 -63 45
-126 88 -140 97 -14 9 -123 43 -243 75 l-217 60 -163 -14 c-272 -23 -348 -35
-462 -69 -165 -50 -260 -65 -412 -65 l-135 0 -181 71 c-179 71 -181 71 -271
153 -60 54 -129 103 -202 144 -120 67 -106 64 -269 55z"/>
<path d="M2013 4338 c3 -10 31 -52 61 -95 30 -43 78 -130 106 -193 l52 -115
167 -168 c154 -156 173 -172 266 -221 l100 -53 160 10 c237 14 435 -8 646 -73
154 -47 161 -49 455 -75 l299 -27 210 -69 210 -70 101 -82 101 -83 259 -18
c212 -15 307 -27 524 -66 l265 -48 236 -114 c222 -108 245 -122 419 -253 l184
-138 257 -83 257 -83 159 -12 c265 -18 267 -10 8 45 -250 53 -278 61 -273 76
2 5 47 57 101 115 54 59 97 109 94 111 -3 3 -691 94 -712 94 -15 0 1 43 56
151 33 66 59 125 57 129 -2 5 -97 -30 -213 -76 -115 -46 -213 -80 -217 -76 -5
5 32 67 82 140 49 72 90 133 90 136 0 4 -179 6 -397 6 -219 0 -404 4 -412 9
-20 13 12 27 218 97 96 32 165 60 154 62 -10 2 -149 -13 -307 -33 -158 -19
-292 -33 -297 -29 -5 3 -7 9 -4 13 2 5 77 55 165 111 89 56 159 104 157 106
-2 2 -133 -27 -290 -66 -276 -67 -327 -77 -327 -64 0 3 23 44 51 91 28 46 49
86 47 88 -2 3 -68 -42 -146 -100 -78 -58 -148 -105 -155 -105 -6 0 -74 70
-150 156 -77 85 -142 153 -145 149 -4 -4 -20 -46 -37 -93 -18 -52 -36 -88 -45
-90 -10 -1 -56 60 -130 174 -63 96 -120 180 -126 185 -7 6 -64 -33 -165 -111
-85 -66 -161 -119 -169 -118 -17 4 -17 2 -25 141 -5 81 -10 107 -20 103 -7 -2
-86 -57 -175 -121 -89 -64 -169 -119 -176 -122 -26 -10 -14 19 56 135 58 96
67 118 53 120 -10 1 -172 -15 -360 -38 -363 -43 -393 -45 -393 -31 0 5 45 32
100 61 55 29 99 55 97 57 -3 2 -116 -39 -252 -92 -137 -52 -252 -92 -257 -87
-4 4 -9 75 -10 157 l-3 150 -113 10 c-74 7 -116 15 -121 24 -5 7 -14 53 -21
101 -7 48 -16 93 -19 99 -4 6 -55 20 -114 30 -112 20 -122 25 -276 140 -27 20
-33 22 -28 9z"/>
</g>
</svg>
